<svg xmlns="http://www.w3.org/2000/svg" viewBox="0 0 214.58 64.46"><defs><style>.cls-1{fill:#e42f2e;}.cls-2{fill:#fdfeff;}</style></defs><title>logo-keralty</title><g id="Layer_2" data-name="Layer 2"><g id="Layer_1-2" data-name="Layer 1"><polygon class="cls-1" points="39.46 31.85 62.81 1.53 59.36 1.53 35.94 31.85 39.46 31.85"/><path class="cls-2" d="M41.83,40c.21.83,1.4,4.49,1.4,4.49H37.1a60.74,60.74,0,0,0,4.53-6.13c.07-.16.09,0,.09,0a6.55,6.55,0,0,0,.12,1.6m-15.58,9.4,1.63-2.12s1,2.88,1.11,3L27.3,52.61Zm-8-9.4c.21.83,1.4,4.49,1.4,4.49H13.54a60.75,60.75,0,0,0,4.53-6.13c.07-.16.09,0,.09,0a6.54,6.54,0,0,0,.12,1.6m44.65,23H1.53V56.78H4.24A20.76,20.76,0,0,1,6,54.16c.21-.21,5.41-7,5.41-7h9.12l1.07,3.7s-2.66,3.48-3.38,4.32c-.42.5-1.64,1.65-1.64,1.65h4.29s.15-.36.49-1a21.75,21.75,0,0,1,1.56-2.11s.53,1.65.57,1.93.2,1.18.2,1.18H28s.15-.33.5-1a16.28,16.28,0,0,1,1.6-2s.48,1.53.53,1.81.2,1.18.2,1.18h5.55s-.83-1.44-1-1.92c-.11-.27-1.84-5.7-1.84-5.7l1.44-2h9.2s2.09,6.74,2.34,7.63a9.64,9.64,0,0,1,.27,2h5.79c-.88-.62-3.08-8.41-4.15-11.4l-2.8-9.72A11.5,11.5,0,0,1,45.4,34H40.92A14.28,14.28,0,0,1,40,35.7c-.35.64-6,8.1-7.29,9.68l-.29.36s0-.15-.09-.36c-.21-.72-.63-2.16-.63-2.16L37,36.43A14.29,14.29,0,0,1,39.35,34H34.75a3,3,0,0,1-.46,1.4c-.22.34-4,5-4,5s-1.18-4.26-1.41-5a4.81,4.81,0,0,1-.18-1.5H23.22a14.87,14.87,0,0,1,.84,1.81l2.72,8.36-1.59,2c-.07-.1-2.94-9.53-3.06-9.93A21,21,0,0,1,21.84,34H17.12a26.77,26.77,0,0,1-1.55,2.92c-.26.38-3.25,4.39-6.44,8.51C5.58,50.11,1.72,54.9,1.64,55l-.11.1V1.54H62.92ZM0,64.46H64.46V0H0Z"/><path class="cls-2" d="M131.23,41.07v8.24h-3.46V30.54h3.46V41.07ZM133,38.73c.35-.46,5.38-8.19,5.38-8.19h4s-4.82,7-5.38,8-.43,1.11-.12,1.73,5.82,9.09,5.82,9.09h-4.21s-5-7.61-5.44-8.33a2.27,2.27,0,0,1-.08-2.25"/><path class="cls-2" d="M143.09,41.52A8.58,8.58,0,0,1,144.68,36,5.9,5.9,0,0,1,149.55,34a7.23,7.23,0,0,1,2.52.41A4.82,4.82,0,0,1,154,35.7a5.83,5.83,0,0,1,1.23,2.18,10.11,10.11,0,0,1,.43,3.11c0,.24,0,.49,0,.76a7.51,7.51,0,0,1-.06.76h-9.17a4.53,4.53,0,0,0,1.17,3.25,4.69,4.69,0,0,0,3.2.93,10.24,10.24,0,0,0,4-.8l.38,2.66a9.27,9.27,0,0,1-2.16.77,11.61,11.61,0,0,1-2.64.28q-3.8,0-5.54-2t-1.74-6.08m3.23-1.15h6.38a4,4,0,0,0-.87-2.81,3.07,3.07,0,0,0-2.26-.82,3,3,0,0,0-2.39.86,4.68,4.68,0,0,0-.86,2.77"/><path class="cls-2" d="M158.14,49.33v-15l2.56-.15L161,37H161a5.36,5.36,0,0,1,1.81-2.24,4.38,4.38,0,0,1,2.51-.76,5.53,5.53,0,0,1,1.58.2l-.2,3.23a4.43,4.43,0,0,0-.75-.18,5.52,5.52,0,0,0-.82-.06,3.69,3.69,0,0,0-1.53.31,3.53,3.53,0,0,0-1.21.89,4.19,4.19,0,0,0-.81,1.42,5.68,5.68,0,0,0-.3,1.9v7.59Z"/><polygon class="cls-2" points="184.21 49.33 184.21 30.44 187.39 30.39 187.39 49.33 184.21 49.33"/><path class="cls-2" d="M191.55,30.52l3.14,0v3.78h3.53v2.46h-3.53v8.4a1.79,1.79,0,0,0,.51,1.44,2.21,2.21,0,0,0,1.47.44,5.07,5.07,0,0,0,.67,0,2.78,2.78,0,0,0,.56-.12l.21,2.36a4.37,4.37,0,0,1-1,.28,7.93,7.93,0,0,1-1.34.11,4.09,4.09,0,0,1-3.18-1.15,4.63,4.63,0,0,1-1.05-3.25Z"/><path class="cls-2" d="M200,34.26h3.65l3.37,10,.69,1.9h.07l.5-2,2.92-9.95h3.41l-5.33,15.12a6.74,6.74,0,0,1-2.06,3.14,4.9,4.9,0,0,1-3,.92,7,7,0,0,1-1.28-.12,5.26,5.26,0,0,1-1.18-.36L202,50.6a4.47,4.47,0,0,0,.81.29,3.5,3.5,0,0,0,.81.09,2.84,2.84,0,0,0,1.42-.35,2.71,2.71,0,0,0,1-1.3l.07-.22Z"/><path class="cls-2" d="M180,37.22a3.95,3.95,0,0,0-2.77-2.88,9,9,0,0,0-2.68-.35,12.51,12.51,0,0,0-5.06,1l.29,2.62a11.37,11.37,0,0,1,2-.65,10.65,10.65,0,0,1,2.19-.2,3.81,3.81,0,0,1,2.42.6,2.52,2.52,0,0,1,.73,2V44.9a1.44,1.44,0,0,1-.25.78,2.39,2.39,0,0,1-.66.68,3.81,3.81,0,0,1-1,.46,3.63,3.63,0,0,1-1.13.17,3,3,0,0,1-1.82-.52,2.65,2.65,0,0,1,0-3.6,3.48,3.48,0,0,1,2.26-.6,5.32,5.32,0,0,1,1.38.14c.07,0,.12,0,.14,0V40.26c-.17,0-.17-.05-.41-.1A9.74,9.74,0,0,0,174,40a5.86,5.86,0,0,0-4.07,1.26,4.36,4.36,0,0,0-1.39,3.39,4.34,4.34,0,0,0,4.7,4.91,5.9,5.9,0,0,0,2.46-.5,4.74,4.74,0,0,0,1.8-1.38l.08,0,.29,1.61h2.43V39.85a9.85,9.85,0,0,0-.31-2.63"/></g></g></svg>