<svg xmlns="http://www.w3.org/2000/svg" viewBox="0 0 461.1 79.21"><defs><style>.cls-1{fill:#6a7f92;}</style></defs><title>logo-white</title><g id="Layer_2" data-name="Layer 2"><g id="Layer_1-2" data-name="Layer 1"><path class="cls-1" d="M348.83,53c0,.06-3.69,6.24-7.44,9.81-2.55,2.32-4.6,3.1-5.09,2.76-.3-.2-.53-1.46.73-4.8C340.16,52,352.09,21,352.59,19.66c1.2-3.12,1.35-5.23.47-6.66-.68-1.1-1.92-1.73-3.78-1.91-4.4-.45-6.93.93-8.47,4.6-1.26,3-5.62,15.31-7,19.24a15.52,15.52,0,0,0-15.87-2.28c-8.45,3.41-15.13,11.51-18,21.25h-.36l-.23.49c-1.81,3.77-6.92,12.51-15.33,12.12-2.83-.06-4.68-.72-5.63-2-1.42-1.89-.86-5.29,0-8.51h.1c2.35,0,9.26-.42,15-5,4.56-3.67,5.67-7.26,5.8-9.62a8.66,8.66,0,0,0-2.56-6.65c-1.76-1.86-5.14-3-9-3h-.12a18.39,18.39,0,0,0-13.23,5.23,36.8,36.8,0,0,0-9.57,18.56c-1.1,2.22-3.85,7.28-7,9.31-2.42,1.65-3.79,1.94-4,1.89,0,0-.18-.45.61-2.1,1.15-2.3,5-10.27,5.65-16.23.36-3.24-.2-5.73-1.66-7.42a7.93,7.93,0,0,0-6-2.43,14.91,14.91,0,0,0-12,5.15c1.42-3.74.66-7.56-1.9-9.72-1.33-1.33-3.88-2.18-6.52-2.18h-.11a13,13,0,0,0-9.24,4c-2.27,2.35-4.16,4.39-5.57,5.95.46-1.37.94-2.75,1.23-3.55a4.74,4.74,0,0,0-.27-4.31c-.58-.85-1.81-1.87-4.42-1.87-2.88,0-6.45,0-8.4,5.18-.06.16-6.12,16.14-7.4,19.07-.32.77-.64,1.61-1,2.48a20.3,20.3,0,0,1-6.67,7.32,4.93,4.93,0,0,1-.69.35c-.4-.62.21-4.05,2.13-8.2A70.36,70.36,0,0,0,196,43.58a6.91,6.91,0,0,0-1.68-6.09c-1.7-1.77-4.41-2.53-7.58-2.14-4.55.42-9.48,3.72-14,9.29.65-1.81,1.31-3.62,1.73-4.81.9-2.56.88-4.66-.08-6.07a5,5,0,0,0-4.2-1.93c-4.73-.39-7.24.89-8.08,4.06-.25.63-4.09,10.34-7,18h-.2l-.26.36c0,.05-3.87,5.5-6.55,7.83-2.79,2.59-5.73,4.19-6.32,3.78,0,0-.78-.72,1.21-5.61,4.79-11.8,5.37-13.51,6.31-16.53.14-.4.29-.79.44-1.18.92-2.43,1.79-4.73.23-6.07-1-.87-3.21-2.67-5.89-2.22a11,11,0,0,0-2.44.8,3.79,3.79,0,0,1-1.94.49c-.29,0-.57-.33-1-.84a8,8,0,0,0-4.16-2.65c-3.44-1.15-11.85-1.42-19,5.77A38.54,38.54,0,0,0,105,56.06c-4,7.11-9,10.15-11.59,10.43-.69.08-.86-.14-.92-.21-.56-.69-.26-2.8.88-6.21C94,58.4,97,50.18,99.86,42.23c2.62-7.24,5.1-14.08,5.89-16.1,1-2.61,1.91-4.86,2.61-6.5.39-.92.71-1.67.92-2.23a4.4,4.4,0,0,0-.32-4c-.82-1.19-2.35-1.85-4.53-1.94-3.18-.16-7,.26-8.45,4.83-.08.22-7.8,22.28-10.17,27.94-2.18,5.2-6.88,17.36-7.47,21.71a12.13,12.13,0,0,0,2.45,8.94,7.7,7.7,0,0,0,5.79,2.78h.58c5.93,0,11.73-2.85,16.39-8.07.41-.45.8-.9,1.18-1.34a17.74,17.74,0,0,0,.53,1.8c1.65,4.64,4.84,7.38,9,7.72,5,.4,10.33-2.66,14-7.8a9.71,9.71,0,0,0,1.91,4.6,9.19,9.19,0,0,0,6.55,3.27l.53,0c1.95,0,6.41-1,13.57-7.57a8.31,8.31,0,0,0,1.82,4.83c2.88,3.5,10.61,2.43,12.38,1.32a1.87,1.87,0,0,0,1-2.35,5.59,5.59,0,0,1,.47-3.62c1.7-3.91,6.22-14.3,10.25-18.88,2.67-3.15,5-5.77,6-5.86.15,1-1.89,4.89-2.58,6.22l-.14.28c-2.13,4.26-5.7,11.39-5.14,18A8,8,0,0,0,178,76.11,10.72,10.72,0,0,0,184.38,78a11.58,11.58,0,0,0,2.24-.21c1.76-.26,4.74-1.86,8.09-4.85a6.7,6.7,0,0,0,1.74,2.76c2.93,2.92,9.46,1.41,11.61.13a1.82,1.82,0,0,0,.94-2.48,3.45,3.45,0,0,1,.34-2.95C210.7,67,216,56.26,221.07,49.9c3.55-4.51,5.77-7.27,6.55-7.27a4.55,4.55,0,0,1,.53,0s.26.56-1,3.24c-.5,1.28-1.3,3-2.24,5.05-2.16,4.71-4.85,10.57-5.78,14.94-.82,4.63-.58,7.54.76,9.44a5.84,5.84,0,0,0,4,2.3,13.44,13.44,0,0,0,2.63.27c3.32,0,5.22-1.45,5.57-2.47a2.27,2.27,0,0,0,0-1.42,4.61,4.61,0,0,1,.33-3c1-2.6,7.3-15,9.85-18.1,2.75-3.12,4-3.91,4.49-4.1A10.21,10.21,0,0,1,245.58,52l-.17.35c-1.6,3.19-4.92,9.82-5.29,15-.57,5.33,1.57,8.69,6.37,10,3.06.84,10.88.1,18.8-8.79a14,14,0,0,0,10.33,8.8,14.81,14.81,0,0,0,3.17.33c4.37,0,9.53-1.65,14.4-4.67a39.51,39.51,0,0,0,5.71-4.36c1.18,5.35,4.5,8.47,9.84,9.1l.56,0a16.07,16.07,0,0,0,13.25-7.79,9.92,9.92,0,0,0,2.2,4.89,9.11,9.11,0,0,0,7,2.88h.18c10.29,0,21.92-17.22,26.31-23.73l.9-1.33H349.08Zm-36,12.58c-.64-1-.61-3.3.09-6.25,1.71-7.24,7-17.08,12-20.18,1.41-.86,2.79-.87,3.7,0,1.25,1.16,1.79,4.34-.82,9.45l-.68,1.28A75,75,0,0,1,322,58.74c-1.83,2.9-6.08,7.29-8.31,7.3a.93.93,0,0,1-.81-.44M280.52,49a39.82,39.82,0,0,1,5.31-7.69,6.16,6.16,0,0,1,3.49-1.84.63.63,0,0,1,.36.08c.15.1.36.75-.4,2.47a11.51,11.51,0,0,1-5.14,5.48l-.09.05A9.54,9.54,0,0,1,280.52,49M118.93,66c-.66-.27-1.09-1.33-1.09-2.69,0-2.77,1.45-9.61,6.9-17.68,3.9-5.79,6.22-6.68,7.48-6.68A3.06,3.06,0,0,1,133,39l.27.07h0a1.9,1.9,0,0,1,1.49,1c.75,1.42.4,4.23-.85,6.89-1.37,3.43-6.13,12.15-10.93,16.76-1.75,1.75-3.25,2.55-4.12,2.18"/><path class="cls-1" d="M82.37,27.62a22.41,22.41,0,0,0-1-8.3,23.7,23.7,0,0,0-4.24-7.73,26.43,26.43,0,0,0-7.64-6.22A53.43,53.43,0,0,0,56.16,1.13Q53.91.65,51.58.36l-.24,0C50.44.21,49.48.12,48.44,0a78.34,78.34,0,0,0-9,.28A54.46,54.46,0,0,0,14.74,9,34.33,34.33,0,0,0,1,26.15a17.25,17.25,0,0,0-.55,1.77A13.38,13.38,0,0,0,0,32.18a11.55,11.55,0,0,0,2.54,6.7,14.3,14.3,0,0,0,5.28,4.05,14.52,14.52,0,0,0,6.32,1.23,8.78,8.78,0,0,0,5.57-2c-.75-.25-1.54-1.13-2.36-2.64A13.4,13.4,0,0,1,16,33.88c-.64-11.77,7.93-20,21.59-24,3.07-1.14,7-1.17,10.29-1.24a53.81,53.81,0,0,1,8.58.48,39.42,39.42,0,0,1,7.45,1.69,17.25,17.25,0,0,1,5.38,2.83,17.36,17.36,0,0,1,3.3,4.15A14.2,14.2,0,0,1,74.35,23a12.06,12.06,0,0,1-.57,5.56A15.07,15.07,0,0,1,70.39,34,36.56,36.56,0,0,1,57,42.52Q48.7,45.73,38,44q1.89-5.85,3.77-10.75c1-2.89,2-5.69,3-8.4S46.5,20.27,47,19.14a10.2,10.2,0,0,0,.84-3.68,5.19,5.19,0,0,0-.93-3.39,4.9,4.9,0,0,0-3.59-1.7,18.09,18.09,0,0,0-7.07,1.22,16.75,16.75,0,0,1-.18,2.27c-.25.75-.54,1.79-.84,3.11a18.25,18.25,0,0,1-2,4.62q-1.51,2.82-4.33,9T23.05,43.74q-3,6.88-5.37,12.83a48.83,48.83,0,0,0-2.74,8.2,32.73,32.73,0,0,0-.38,5.37,8.79,8.79,0,0,0,1.79,5.46c1.2,1.58,3.21,2.65,6,3.21s6.89,0,12.17-1.79A6.26,6.26,0,0,1,31,73.54a10.09,10.09,0,0,1-.19-6.5,40.26,40.26,0,0,1,1.32-5c.62-1.94,1.25-3.87,1.88-5.75.63-2.27,1.39-4.59,2.26-7a9.07,9.07,0,0,0,1.14,6,7.62,7.62,0,0,0,4.53,3c2.13.63,5.4.24,9.8-1.14q13.2-4.14,19.52-10a39.18,39.18,0,0,0,9.15-11.88,21.4,21.4,0,0,0,2-7.73"/><path class="cls-1" d="M366.15,17.54a1.5,1.5,0,0,0-.93-1.24v-.06a1.3,1.3,0,0,0,1.05-1.18h0a1.41,1.41,0,0,0-.5-1.12,3.16,3.16,0,0,0-1.77-.37,10.37,10.37,0,0,0-2,.15h0v5.08h1.18v-2h.56c.65,0,1,.25,1.05.81a4.35,4.35,0,0,0,.4,1.24h1.27a3.87,3.87,0,0,1-.37-1.27m-2.23-3.13c.74,0,1.08.31,1.08.78s-.53.74-1.18.74h-.56V14.47a2.81,2.81,0,0,1,.65-.06"/><path class="cls-1" d="M369.25,16.14a5.22,5.22,0,0,0-10.45,0h0a5.22,5.22,0,0,0,10.45,0Zm-5.18,4.06a3.94,3.94,0,0,1-4-4.06,3.92,3.92,0,1,1,7.84,0,3.89,3.89,0,0,1-3.87,4"/><path class="cls-1" d="M400.32,49.4V0H416V48.35Q416,56,419.91,60t10.85,4q6.74,0,10.64-4.11t3.9-11.59V0h15.8V49.4q0,14.64-8.64,22.23t-21.7,7.58q-13.17,0-21.8-7.58T400.32,49.4"/></g></g></svg>