<?xml version="1.0"?>
<svg xmlns="http://www.w3.org/2000/svg" id="icons" enable-background="new 0 0 64 64" height="512px" viewBox="0 0 64 64" width="512px"><path d="m63 47.002h-3v-34.004c0-1.654-1.346-3-3-3h-50c-1.654 0-3 1.346-3 3v34.004h-3c-.553 0-1 .447-1 1v3c0 1.654 1.346 3 3 3h58c1.654 0 3-1.346 3-3v-3c0-.553-.447-1-1-1zm-56-35.004h50c.552 0 1 .448 1 1v30.004h-11v-6.006c0-.131-.026-.261-.077-.383-.047-.113-.116-.213-.199-.3-.007-.008-.009-.018-.017-.025l-4-3.994c-.391-.389-1.024-.39-1.415.001-.39.392-.39 1.024.001 1.415l3.707 3.701v5.591h-3v-2.005c0-2.205-1.794-3.999-4-3.999-.011 0-.019.006-.029.006h-1.971v-2.092c2.386-1.385 3.997-3.959 4-6.908 0-.001 0-.001 0-.002v-2.998c0-.002.001-.003.001-.005v-8.001c0-.553-.447-1-1-1h-14c-.553 0-1 .447-1 1v7.997c0 .002-.001.003-.001.005v3.002.002c.003 2.949 1.614 5.523 4 6.908v2.092h-1.971c-.011 0-.019-.006-.029-.006-2.206 0-4 1.794-4 3.999v2.005h-16v-30.004c0-.552.448-1 1-1zm27.387 31.004 1.334-3.998h2.279c.007 0 .013-.004.02-.004 1.094.011 1.98.901 1.98 1.997v2.005zm-2.666 0-1.071-3.211 1.35-.676 1.351.676-1.071 3.211zm-7.721-2.005c0-1.096.887-1.986 1.98-1.997.007 0 .013.004.02.004h2.279l1.334 3.998h-5.613zm2-14.998h12v1.998c0 3.307-2.691 5.997-6 5.997s-6-2.69-6-5.997zm5.001-7.002v1.001h-1.001c-.553 0-1 .447-1 1s.447 1 1 1h1.001v1.001c0 .553.447 1 1 1s1-.447 1-1v-1.001h1c.553 0 1-.447 1-1s-.447-1-1-1h-1v-1.001c0-.551-.444-.996-.995-.999h5.995v6.001h-6-6v-6.001h5.995c-.551.003-.995.448-.995.999zm.999 16.997c.691 0 1.359-.098 2-.264v1.853l-.197.197-1.355-.678c-.021-.011-.046-.009-.067-.019-.064-.026-.129-.04-.197-.053-.062-.012-.121-.024-.183-.023-.062-.001-.121.012-.183.023-.068.013-.133.026-.197.053-.021.01-.046.008-.067.019l-1.355.678-.199-.197v-1.853c.641.166 1.309.264 2 .264zm-26 9.008h3.02c-.552 0-.994.447-.994 1s.452 1 1.005 1c.552 0 1-.447 1-1s-.448-1-1-1h17.989c-.552 0-.994.447-.994 1s.452 1 1.005 1c.552 0 1-.447 1-1s-.448-1-1-1h4.989c-.552 0-.994.447-.994 1s.452 1 1.005 1c.552 0 1-.447 1-1s-.448-1-1-1h4.989c-.552 0-.994.447-.994 1s.452 1 1.005 1c.552 0 1-.447 1-1s-.448-1-1-1h17.989c-.552 0-.994.447-.994 1s.452 1 1.005 1c.552 0 1-.447 1-1s-.448-1-1-1h2.969v2h-2.97-18-5-5-18-3.03zm55 7h-58c-.552 0-1-.448-1-1v-2h60v2c0 .552-.448 1-1 1z" fill="#59798A"/><path d="m9 21.001h6c.458 0 .827-.313.946-.733l2.812.703c.08.021.161.029.24.03h.002.001c.125 0 .244-.028.357-.072.039-.015.071-.038.107-.058.069-.037.135-.078.194-.131.034-.031.063-.065.094-.101.047-.056.086-.114.121-.18.023-.045.044-.09.061-.139.01-.027.027-.05.034-.078.01-.04.001-.079.006-.12s.025-.078.025-.121v-5c0-.043-.02-.08-.024-.122-.005-.041.004-.08-.006-.12-.006-.025-.024-.043-.032-.067-.022-.068-.054-.129-.09-.189-.031-.053-.061-.104-.101-.148-.042-.05-.091-.089-.143-.129-.051-.04-.1-.077-.157-.106-.054-.027-.11-.044-.169-.062-.067-.02-.134-.035-.205-.041-.025-.002-.047-.015-.073-.015-.043 0-.079.02-.121.024-.04.005-.08-.005-.121.006l-2.812.703c-.119-.42-.488-.733-.946-.733h-6c-.553 0-1 .447-1 1v5c0 .552.447.999 1 .999zm9-2.28-2-.5v-1.439l2-.5zm-8-2.72h4v3h-4z" fill="#59798A"/><path d="m46.5 20.001c1.379 0 2.5-1.121 2.5-2.5s-1.121-2.5-2.5-2.5-2.5 1.121-2.5 2.5 1.121 2.5 2.5 2.5zm0-3c.275 0 .5.225.5.5s-.225.5-.5.5-.5-.225-.5-.5.225-.5.5-.5z" fill="#59798A"/><path d="m53.5 20.001c1.379 0 2.5-1.121 2.5-2.5s-1.121-2.5-2.5-2.5-2.5 1.121-2.5 2.5 1.121 2.5 2.5 2.5zm0-3c.275 0 .5.225.5.5s-.225.5-.5.5-.5-.225-.5-.5.225-.5.5-.5z" fill="#59798A"/></svg>
