<?xml version="1.0"?>
<svg xmlns="http://www.w3.org/2000/svg" id="outline" height="512px" viewBox="0 0 512 512" width="512px"><path d="m120 168a8 8 0 0 0 8 8h32a8 8 0 0 0 8-8v-24h24a8 8 0 0 0 8-8v-32a8 8 0 0 0 -8-8h-24v-24a8 8 0 0 0 -8-8h-32a8 8 0 0 0 -8 8v24h-24a8 8 0 0 0 -8 8v32a8 8 0 0 0 8 8h24zm-16-40v-16h24a8 8 0 0 0 8-8v-24h16v24a8 8 0 0 0 8 8h24v16h-24a8 8 0 0 0 -8 8v24h-16v-24a8 8 0 0 0 -8-8z" fill="#59798A"/><path d="m141.266 239.519a8.011 8.011 0 0 0 5.468 0 142.12 142.12 0 0 0 93.266-133.157v-50.362a8 8 0 0 0 -5.266-7.519l-88-32a8.014 8.014 0 0 0 -5.468 0l-88 32a8 8 0 0 0 -5.266 7.519v50.362a142.122 142.122 0 0 0 93.266 133.157zm-77.266-177.919 72-26.182v12.582h16v-12.578l72 26.178v44.758a126.125 126.125 0 0 1 -72 113.625v-27.983h-16v27.987a126.127 126.127 0 0 1 -72-113.625z" fill="#59798A"/><path d="m456.837 208h-8.837v-32h8a8 8 0 0 0 8-8v-48a8 8 0 0 0 -8-8h-128a8 8 0 0 0 -8 8v48a8 8 0 0 0 8 8h8v32h-8.837a39.207 39.207 0 0 0 -39.163 39.163v29.812a47.978 47.978 0 0 0 -66.745 1.084l-79.2 79.2a48.21 48.21 0 0 0 -13.228 42.741h-64.827a48 48 0 0 0 0 96h112a47.961 47.961 0 0 0 39-75.925l73-73v93.758a39.207 39.207 0 0 0 39.163 39.167h129.674a39.207 39.207 0 0 0 39.163-39.163v-193.674a39.207 39.207 0 0 0 -39.163-39.163zm-303.464 160.568 33.941-33.94 45.254 45.255-28.918 28.917a47.92 47.92 0 0 0 -7.13-4.183l19.08-19.078-11.315-11.313-22.628 22.627 4.161 4.16a47.987 47.987 0 0 0 -9.818-1.013h-30.771a32.148 32.148 0 0 1 8.144-31.432zm-121.373 79.432a32.037 32.037 0 0 1 32-32h48v64h-48a32.037 32.037 0 0 1 -32-32zm144 32h-48v-64h48a32 32 0 0 1 0 64zm101.823-145.373-33.941 33.942-45.254-45.255 33.941-33.941a32 32 0 1 1 45.254 45.254zm170.177-174.627h-16v-16h-16v16h-16v-32h48zm-80 0v-32h16v32zm-32-32h16v32h-16zm16 48h80v32h-80zm-24.837 48h129.674a23.189 23.189 0 0 1 23.163 23.163v16.837h-176v-16.837a23.189 23.189 0 0 1 23.163-23.163zm-23.163 56h176v96h-176zm152.837 184h-129.674a23.2 23.2 0 0 1 -22.024-16h158.861v-16h-160v-40h176v48.837a23.189 23.189 0 0 1 -23.163 23.163z" fill="#59798A"/><path d="m424 320h-24v-24h-16v24h-24v16h24v24h16v-24h24z" fill="#59798A"/><path d="m64 456h32v16h-32z" fill="#59798A"/><path d="m144 456h32v16h-32z" fill="#59798A"/><path d="m239.196 326.628h32v15.999h-32z" transform="matrix(.707 -.707 .707 .707 -161.87 278.443)" fill="#59798A"/></svg>
